Coordinates
version=1
nRows=8
nColumns=63
inDegrees=yes

Units are S.I. units (second, meters, Newtons, ...)
If the header above contains a line with 'inDegrees', this indicates whether rotational values are in degrees (yes) or radians (no).

endheader
time	pelvis_tilt	pelvis_list	pelvis_rotation	pelvis_tx	pelvis_ty	pelvis_tz	hip_flexion_r	hip_adduction_r	hip_rotation_r	knee_angle_r	knee_angle_r_beta	ankle_angle_r	subtalar_angle_r	mtp_angle_r	hip_flexion_l	hip_adduction_l	hip_rotation_l	knee_angle_l	knee_angle_l_beta	ankle_angle_l	subtalar_angle_l	mtp_angle_l	L5_S1_Flex_Ext	L5_S1_Lat_Bending	L5_S1_axial_rotation	L4_L5_Flex_Ext	L4_L5_Lat_Bending	L4_L5_axial_rotation	L3_L4_Flex_Ext	L3_L4_Lat_Bending	L3_L4_axial_rotation	L2_L3_Flex_Ext	L2_L3_Lat_Bending	L2_L3_axial_rotation	L1_L2_Flex_Ext	L1_L2_Lat_Bending	L1_L2_axial_rotation	L1_T12_Flex_Ext	L1_T12_Lat_Bending	L1_T12_axial_rotation	Abs_r3	Abs_r2	Abs_r1	Abs_t1	Abs_t2	neck_flexion	neck_bending	neck_rotation	arm_flex_r	arm_add_r	arm_rot_r	elbow_flex_r	pro_sup_r	wrist_flex_r	wrist_dev_r	arm_flex_l	arm_add_l	arm_rot_l	elbow_flex_l	pro_sup_l	wrist_flex_l	wrist_dev_l
3.615385	15.131952	-18.928016	105.116198	0.207856	0.600850	0.891375	34.898749	12.731545	-10.962063	38.973584	0.680217	39.050563	5.180576	0.000000	38.659641	-17.225986	8.381387	40.340149	0.704068	37.417660	-6.472924	0.000000	-0.277815	-1.982194	2.197857	-0.515930	-2.636318	2.335223	-0.456422	-4.819506	2.335223	-0.317514	-4.819506	1.923125	-0.257979	-4.042089	1.785759	-0.158743	-3.070418	1.648393	-1.984402	-22.422972	12.223820	0.000000	0.000000	13.915545	-0.835410	-6.848049	12.484625	-3.759346	136.984667	6.887913	37.234867	-14.944492	-9.200460	552.799780	-122.911255	540.387062	73.130251	93.158788	-24.934107	1.327083
3.634615	15.459492	-19.619307	104.654056	0.212463	0.594589	0.895677	37.192191	12.915370	-11.139794	41.368339	0.722014	39.660525	4.898804	0.000000	41.139271	-17.421778	9.034011	42.983988	0.750212	37.940315	-7.089165	0.000000	-0.281924	-2.102268	2.392715	-0.523561	-2.796016	2.542260	-0.463173	-5.111453	2.542260	-0.322211	-5.111453	2.093626	-0.261795	-4.286944	1.944081	-0.161091	-3.256412	1.794536	-2.013756	-23.781271	13.307565	0.000000	0.000000	14.972641	0.697828	-8.348480	12.896033	-2.575483	145.782427	4.867826	29.897486	-15.014960	-9.568708	558.608546	-122.346843	545.026336	64.580060	94.550549	-28.878668	-0.905261
3.653846	16.136821	-20.079373	104.538150	0.215999	0.588069	0.899922	39.340150	13.242956	-11.772306	43.596820	0.760908	40.224349	4.719462	0.000000	43.676636	-17.686566	10.206922	45.627137	0.796344	38.549718	-7.642039	0.000000	-0.288385	-2.156340	2.501174	-0.535559	-2.867932	2.657498	-0.473787	-5.242924	2.657498	-0.329595	-5.242924	2.188528	-0.267794	-4.397208	2.032204	-0.164783	-3.340170	1.875881	-2.059903	-24.392944	13.910781	0.000000	0.000000	16.001534	1.782724	-9.476250	13.327134	-1.683079	153.747322	3.053372	22.398096	-15.021684	-9.791076	563.813155	-122.509028	550.853270	56.266644	93.811848	-31.023804	-2.399170
3.673077	17.236012	-20.287492	104.785713	0.218328	0.581365	0.904044	41.327128	13.718218	-12.960109	45.617540	0.796176	40.748484	4.732555	0.000000	46.281257	-18.026483	11.963864	48.244138	0.842019	39.243526	-8.147093	0.000000	-0.294960	-2.131051	2.514742	-0.547771	-2.834298	2.671913	-0.484590	-5.181438	2.671913	-0.337110	-5.181438	2.200399	-0.273900	-4.345639	2.043228	-0.168540	-3.300998	1.886057	-2.106872	-24.106876	13.986241	0.000000	0.000000	17.010827	2.324905	-10.095659	13.825308	-1.153609	160.639476	1.518851	15.165377	-14.966697	-9.878944	568.064940	-123.538473	557.421195	48.276786	91.136567	-31.653304	-3.337530
3.692308	18.668026	-20.276456	105.334211	0.219565	0.574639	0.907938	43.122747	14.300797	-14.615082	47.428744	0.827788	41.230514	4.925684	0.000000	48.868642	-18.431126	14.166275	50.790340	0.886459	40.004115	-8.604993	0.000000	-0.302464	-2.038388	2.447322	-0.561706	-2.711057	2.600280	-0.496918	-4.956137	2.600280	-0.345686	-4.956137	2.141407	-0.280868	-4.156682	1.988449	-0.172828	-3.157464	1.835492	-2.160469	-23.058657	13.611272	0.000000	0.000000	17.973950	2.291650	-10.339611	14.395145	-0.962786	166.462161	0.300956	8.633527	-14.829786	-9.748649	571.192940	-125.267582	564.483276	40.718658	86.877236	-31.514965	-3.987782
3.711538	20.304729	-20.102858	106.073744	0.219964	0.568058	0.911516	44.717964	14.956474	-16.520533	49.044718	0.855992	41.671614	5.197232	0.000000	51.349331	-18.894848	16.591995	53.224506	0.928943	40.817304	-8.969781	0.000000	-0.310921	-1.897649	2.334832	-0.577412	-2.523873	2.480759	-0.510813	-4.613944	2.480759	-0.355352	-4.613944	2.042978	-0.288722	-3.869686	1.897051	-0.177660	-2.939459	1.751124	-2.220880	-21.466587	12.985638	0.000000	0.000000	18.855401	1.667025	-10.490989	14.883095	-1.091912	170.178648	-0.433185	4.113415	-14.592022	-9.272839	573.205396	-127.259148	572.183073	33.607007	81.286461	-31.908609	-5.248284
3.730769	21.970434	-19.824275	106.863428	0.219822	0.561847	0.914730	46.094611	15.625131	-18.465294	50.484806	0.881126	42.063407	5.488609	0.000000	53.604923	-19.385275	18.999041	55.485584	0.968406	41.635767	-9.254423	0.000000	-0.322204	-1.736568	2.217829	-0.598365	-2.309636	2.356444	-0.529349	-4.222292	2.356444	-0.368247	-4.222292	1.940601	-0.299199	-3.541210	1.801986	-0.184107	-2.689944	1.663372	-2.301472	-19.644406	12.334902	0.000000	0.000000	19.613841	0.530676	-10.962047	15.354213	-1.469308	172.175718	-0.717285	1.272146	-14.450979	-8.641421	574.720737	-129.133138	580.560654	27.094393	74.628631	-32.080810	-6.401983
3.750000	23.486853	-19.515883	107.575550	0.219486	0.556184	0.917505	47.264692	16.238502	-20.237627	51.771334	0.903580	42.395842	5.741250	0.000000	55.541922	-19.852442	21.160629	57.495817	1.003491	42.415686	-9.447830	0.000000	-0.335367	-1.584710	2.115650	-0.622809	-2.107664	2.247878	-0.550974	-3.853063	2.247878	-0.383291	-3.853063	1.851194	-0.311421	-3.231540	1.718965	-0.191628	-2.454715	1.586737	-2.395490	-17.926553	11.766609	0.000000	0.000000	20.310269	-0.944539	-11.964735	15.818163	-1.969420	172.272968	-0.551200	0.354671	-14.520490	-7.855665	576.002846	-130.716334	589.406042	21.316241	67.216292	-31.797764	-7.183508
